<svg width="147" height="148" viewBox="0 0 147 148" fill="none" xmlns="http://www.w3.org/2000/svg">
<path d="M135.848 37.0459V110.032L73.0583 146.522L10.2683 110.032V37.0459L73.0583 0.555664L135.848 37.0459Z" fill="#F0F0F0" stroke="#2F9E93" stroke-width="0.9613"/>
<path d="M73.1467 14.2439L124.498 43.8916V103.187L73.1467 132.835L21.7954 103.187V43.8916L73.1467 14.2439Z" fill="white"/>
<path fill-rule="evenodd" clip-rule="evenodd" d="M73.1477 1.35138L135.664 37.4453V109.633L73.1477 145.727L10.6311 109.633V37.4453L73.1477 1.35138ZM129.39 41.068L73.1477 8.59672L16.9057 41.068V106.011L73.1477 138.482L129.39 106.011V41.068Z" fill="white"/>
<path d="M0.901367 90.362H145.218L137.689 104.166L145.218 117.029H0.901367L9.0584 103.852L0.901367 90.362Z" fill="#2F9E93"/>
<path d="M31.0782 110.328L31.0782 99.8791L37.8743 99.8791L37.8743 101.466L32.9711 101.466L32.9711 104.303L37.5223 104.303L37.5223 105.89L32.9711 105.89L32.9711 108.742L37.9151 108.742L37.9151 110.328L31.0782 110.328ZM41.3872 99.8791L43.6883 103.706L43.7699 103.706L46.0812 99.8791L48.2395 99.8791L45.02 105.104L48.2905 110.328L46.0966 110.328L43.7699 106.527L43.6883 106.527L41.3617 110.328L39.1779 110.328L42.4791 105.104L39.2188 99.8791L41.3872 99.8791ZM49.7255 110.328L49.7255 99.8791L53.644 99.8791C54.4468 99.8791 55.1203 100.029 55.6645 100.328C56.2121 100.627 56.6254 101.039 56.9043 101.563C57.1867 102.083 57.3278 102.675 57.3278 103.338C57.3278 104.009 57.1867 104.604 56.9043 105.124C56.622 105.645 56.2053 106.055 55.6543 106.354C55.1032 106.65 54.4247 106.798 53.6185 106.798L51.0215 106.798L51.0215 105.242L53.3634 105.242C53.8328 105.242 54.2172 105.16 54.5165 104.997C54.8158 104.833 55.0369 104.609 55.1798 104.323C55.326 104.037 55.3992 103.709 55.3992 103.338C55.3992 102.968 55.326 102.641 55.1798 102.359C55.0369 102.077 54.8141 101.857 54.5114 101.701C54.2121 101.541 53.826 101.461 53.3532 101.461L51.6184 101.461L51.6184 110.328L49.7255 110.328ZM58.972 110.328L58.972 99.8791L65.7682 99.8791L65.7682 101.466L60.8649 101.466L60.8649 104.303L65.4161 104.303L65.4161 105.89L60.8649 105.89L60.8649 108.742L65.809 108.742L65.809 110.328L58.972 110.328ZM67.6993 110.328L67.6993 99.8791L71.6179 99.8791C72.4206 99.8791 73.0941 100.019 73.6383 100.298C74.186 100.576 74.5993 100.968 74.8782 101.471C75.1605 101.971 75.3017 102.554 75.3017 103.221C75.3017 103.891 75.1588 104.473 74.8731 104.966C74.5907 105.456 74.1741 105.835 73.623 106.104C73.072 106.369 72.3951 106.502 71.5923 106.502L68.8014 106.502L68.8014 104.93L71.3372 104.93C71.8066 104.93 72.191 104.866 72.4903 104.736C72.7897 104.604 73.0108 104.412 73.1536 104.16C73.2999 103.905 73.373 103.592 73.373 103.221C73.373 102.85 73.2999 102.534 73.1536 102.272C73.0074 102.007 72.7846 101.806 72.4852 101.67C72.1859 101.531 71.7998 101.461 71.327 101.461L69.5923 101.461L69.5923 110.328L67.6993 110.328ZM73.0975 105.594L75.6843 110.328L73.572 110.328L71.0311 105.594L73.0975 105.594ZM78.937 99.8791L78.937 110.328L77.0441 110.328L77.0441 99.8791L78.937 99.8791ZM80.9868 110.328L80.9868 99.8791L87.783 99.8791L87.783 101.466L82.8797 101.466L82.8797 104.303L87.4309 104.303L87.4309 105.89L82.8797 105.89L82.8797 108.742L87.8238 108.742L87.8238 110.328L80.9868 110.328ZM98.3012 99.8791L98.3012 110.328L96.6174 110.328L91.6938 103.211L91.6071 103.211L91.6071 110.328L89.7141 110.328L89.7141 99.8791L91.4081 99.8791L96.3266 107.002L96.4185 107.002L96.4185 99.8791L98.3012 99.8791ZM109.308 103.405L107.4 103.405C107.345 103.092 107.245 102.815 107.099 102.573C106.952 102.328 106.77 102.121 106.553 101.951C106.335 101.781 106.087 101.653 105.808 101.568C105.532 101.48 105.235 101.435 104.915 101.435C104.347 101.435 103.843 101.578 103.405 101.864C102.966 102.146 102.622 102.561 102.374 103.109C102.126 103.653 102.002 104.318 102.002 105.104C102.002 105.903 102.126 106.577 102.374 107.124C102.626 107.669 102.969 108.08 103.405 108.359C103.843 108.635 104.345 108.772 104.91 108.772C105.223 108.772 105.515 108.731 105.787 108.65C106.063 108.565 106.31 108.441 106.527 108.277C106.748 108.114 106.934 107.913 107.083 107.675C107.236 107.437 107.342 107.165 107.4 106.859L109.308 106.869C109.237 107.366 109.082 107.832 108.844 108.267C108.609 108.703 108.301 109.087 107.92 109.42C107.539 109.75 107.094 110.009 106.583 110.196C106.073 110.38 105.507 110.471 104.884 110.471C103.966 110.471 103.146 110.259 102.425 109.834C101.704 109.408 101.136 108.794 100.721 107.992C100.306 107.189 100.098 106.226 100.098 105.104C100.098 103.978 100.308 103.015 100.726 102.216C101.144 101.413 101.714 100.799 102.435 100.374C103.156 99.9489 103.973 99.7363 104.884 99.7363C105.466 99.7363 106.007 99.8179 106.507 99.9812C107.007 100.144 107.452 100.384 107.844 100.701C108.235 101.014 108.556 101.398 108.808 101.854C109.063 102.306 109.23 102.823 109.308 103.405ZM111.041 110.328L111.041 99.8791L117.838 99.8791L117.838 101.466L112.934 101.466L112.934 104.303L117.486 104.303L117.486 105.89L112.934 105.89L112.934 108.742L117.878 108.742L117.878 110.328L111.041 110.328Z" fill="white"/>
<path d="M98.5545 49.4349L93.1479 49.4349L93.1479 46.2878L98.5545 46.2878L98.5545 40.8409L101.702 40.8409L101.702 46.2878L107.108 46.2878L107.108 49.4349L101.702 49.4349L101.702 54.9625L98.5545 54.9625L98.5545 49.4349Z" fill="#2F9E93"/>
<path d="M78.7177 83.5556C75.1313 83.5556 72.3966 82.5469 70.5138 80.5295C68.6309 78.4674 67.6895 75.531 67.6895 71.7204L67.6895 68.0219L74.683 68.0219L74.683 72.2583C74.683 75.3068 75.9607 76.831 78.516 76.831C81.0713 76.831 82.349 75.3068 82.349 72.2583L82.349 61.7008C82.349 58.6075 81.0713 57.0609 78.516 57.0609C75.9607 57.0609 74.683 58.6075 74.683 61.7008L74.683 62.1043L67.6895 62.1043L69.0344 35.8113L88.5356 35.8113L88.5356 42.5358L75.6244 42.5358L75.0192 53.7658L75.1537 53.7658C76.5434 51.4795 78.6729 50.3363 81.542 50.3363C84.2318 50.3363 86.2716 51.2553 87.6614 53.0934C89.0511 54.9314 89.746 57.5988 89.746 61.0956L89.746 71.7204C89.746 75.531 88.8045 78.4673 86.9217 80.5295C85.0388 82.5469 82.3041 83.5556 78.7177 83.5556Z" fill="#2F9E93"/>
<path d="M55.5902 46.9741L47.8569 46.9741L47.8569 41.7289C49.964 41.7289 51.6451 41.5496 52.9003 41.191C54.2004 40.8323 55.2315 40.2495 55.9936 39.4426C56.7558 38.5908 57.4282 37.3804 58.011 35.8113L62.9872 35.8113L62.9872 82.8832L55.5902 82.8832L55.5902 46.9741Z" fill="#2F9E93"/>
</svg>
